<?xml version="1.0" encoding="utf-8"?>
<!-- Generator: Adobe Illustrator 18.0.0, SVG Export Plug-In . SVG Version: 6.00 Build 0)  -->
<!DOCTYPE svg PUBLIC "-//W3C//DTD SVG 1.1//EN" "http://www.w3.org/Graphics/SVG/1.1/DTD/svg11.dtd">
<svg version="1.1" id="Layer_1" xmlns="http://www.w3.org/2000/svg" xmlns:xlink="http://www.w3.org/1999/xlink" x="0px" y="0px"
	 viewBox="0 0 64 64" enable-background="new 0 0 64 64" xml:space="preserve">
<g>
	<g>
		<g>
			<path fill="#54AAEF" d="M32,0c17.7,0,32,14.3,32,32S49.7,64,32,64S0,49.7,0,32S14.3,0,32,0z"/>
		</g>
	</g>
	<g>
		<g>
			<rect x="13.3" y="50" fill="#D8E3EA" width="38.7" height="2"/>
		</g>
	</g>
	<g>
		<g>
			<rect x="15.2" y="48" fill="#EBF6FC" width="34.9" height="2"/>
		</g>
	</g>
	<g>
		<g>
			<rect x="19" y="28" fill="#D8E3EA" width="5" height="20"/>
		</g>
	</g>
	<g>
		<g>
			<path fill="#D8E3EA" d="M13,25L32,8l20,17H13z"/>
		</g>
	</g>
	<g>
		<g>
			<path fill="#B6CAD8" d="M18,23l14-12l15,12H18z"/>
		</g>
	</g>
	<g>
		<g>
			<path fill="#B6CAD8" d="M25,29h-7c-0.6,0-1-0.5-1-1v0c0-0.6,0.4-1,1-1h7c0.6,0,1,0.4,1,1v0C26,28.6,25.6,29,25,29z"/>
		</g>
	</g>
	<g>
		<g>
			<path fill="#B6CAD8" d="M25,48h-7c-0.6,0-1-0.4-1-1l0,0c0-0.6,0.4-1,1-1h7c0.6,0,1,0.4,1,1l0,0C26,47.6,25.6,48,25,48z"/>
		</g>
	</g>
	<g>
		<g>
			<rect x="30" y="28" fill="#D8E3EA" width="5" height="20"/>
		</g>
	</g>
	<g>
		<g>
			<rect x="41" y="28" fill="#D8E3EA" width="5" height="20"/>
		</g>
	</g>
	<g>
		<g>
			<rect x="13" y="25" fill="#EBF6FC" width="39" height="2"/>
		</g>
	</g>
	<g>
		<g>
			<circle fill="#FFFFFF" cx="32" cy="18" r="3"/>
		</g>
	</g>
	<g>
		<g>
			<g>
				<path fill="#B6CAD8" d="M22.5,43.5c-0.3,0-0.5-0.2-0.5-0.5V32c0-0.3,0.2-0.5,0.5-0.5S23,31.7,23,32v11
					C23,43.3,22.8,43.5,22.5,43.5z"/>
			</g>
		</g>
	</g>
	<g>
		<g>
			<g>
				<path fill="#B6CAD8" d="M20.5,43.5c-0.3,0-0.5-0.2-0.5-0.5V32c0-0.3,0.2-0.5,0.5-0.5S21,31.7,21,32v11
					C21,43.3,20.8,43.5,20.5,43.5z"/>
			</g>
		</g>
	</g>
	<g>
		<g>
			<g>
				<path fill="#B6CAD8" d="M33.5,43.5c-0.3,0-0.5-0.2-0.5-0.5V32c0-0.3,0.2-0.5,0.5-0.5S34,31.7,34,32v11
					C34,43.3,33.8,43.5,33.5,43.5z"/>
			</g>
		</g>
	</g>
	<g>
		<g>
			<g>
				<path fill="#B6CAD8" d="M31.5,43.5c-0.3,0-0.5-0.2-0.5-0.5V32c0-0.3,0.2-0.5,0.5-0.5S32,31.7,32,32v11
					C32,43.3,31.8,43.5,31.5,43.5z"/>
			</g>
		</g>
	</g>
	<g>
		<g>
			<g>
				<path fill="#B6CAD8" d="M44.5,43.5c-0.3,0-0.5-0.2-0.5-0.5V32c0-0.3,0.2-0.5,0.5-0.5S45,31.7,45,32v11
					C45,43.3,44.8,43.5,44.5,43.5z"/>
			</g>
		</g>
	</g>
	<g>
		<g>
			<g>
				<path fill="#B6CAD8" d="M42.5,43.5c-0.3,0-0.5-0.2-0.5-0.5V32c0-0.3,0.2-0.5,0.5-0.5S43,31.7,43,32v11
					C43,43.3,42.8,43.5,42.5,43.5z"/>
			</g>
		</g>
	</g>
	<g>
		<g>
			<rect x="18" y="29" fill="#EBF6FC" width="7" height="1"/>
		</g>
	</g>
	<g>
		<g>
			<path fill="#B6CAD8" d="M36,29h-7c-0.6,0-1-0.5-1-1v0c0-0.6,0.4-1,1-1h7c0.6,0,1,0.4,1,1v0C37,28.6,36.5,29,36,29z"/>
		</g>
	</g>
	<g>
		<g>
			<rect x="29" y="29" fill="#EBF6FC" width="7" height="1"/>
		</g>
	</g>
	<g>
		<g>
			<path fill="#B6CAD8" d="M47,29h-7c-0.6,0-1-0.5-1-1v0c0-0.6,0.4-1,1-1h7c0.6,0,1,0.4,1,1v0C48,28.6,47.6,29,47,29z"/>
		</g>
	</g>
	<g>
		<g>
			<rect x="40" y="29" fill="#EBF6FC" width="7" height="1"/>
		</g>
	</g>
	<g>
		<g>
			<path fill="#B6CAD8" d="M40,46h7c0.6,0,1,0.5,1,1l0,0c0,0.6-0.4,1-1,1h-7c-0.6,0-1-0.4-1-1l0,0C39,46.4,39.5,46,40,46z"/>
		</g>
	</g>
	<g>
		<g>
			<rect x="40" y="45" fill="#EBF6FC" width="7" height="1"/>
		</g>
	</g>
	<g>
		<g>
			<path fill="#B6CAD8" d="M29,46h7c0.6,0,1,0.5,1,1l0,0c0,0.6-0.4,1-1,1h-7c-0.6,0-1-0.4-1-1l0,0C28,46.4,28.5,46,29,46z"/>
		</g>
	</g>
	<g>
		<g>
			<rect x="29" y="45" fill="#EBF6FC" width="7" height="1"/>
		</g>
	</g>
	<g>
		<g>
			<rect x="18" y="45" fill="#EBF6FC" width="7" height="1"/>
		</g>
	</g>
</g>
</svg>
